# Blender v2.71 (sub 5) OBJ File: ''
# www.blender.org
mtllib agent.mtl
o Cone
v -0.382682 -1.000000 -0.923880
v 0.000000 1.000000 0.000000
v -0.195089 -1.000000 -0.980786
v 0.000000 -1.000000 -1.000000
v 0.195090 -1.000000 -0.980785
v -0.555569 -1.000000 -0.831470
v -0.707106 -1.000000 -0.707108
v -0.831469 -1.000000 -0.555571
v -0.923879 -1.000000 -0.382684
v -0.980785 -1.000000 -0.195091
v -1.000000 -1.000000 -0.000001
v -0.980785 -1.000000 0.195089
v -0.923880 -1.000000 0.382683
v -0.831470 -1.000000 0.555570
v -0.707107 -1.000000 0.707106
v -0.555571 -1.000000 0.831469
v -0.382684 -1.000000 0.923879
v -0.195091 -1.000000 0.980785
v 0.000000 -1.000000 1.000000
v 0.195090 -1.000000 0.980785
v 0.382683 -1.000000 0.923880
v 0.555570 -1.000000 0.831470
v 0.707107 -1.000000 0.707107
v 0.831470 -1.000000 0.555570
v 0.923880 -1.000000 0.382683
v 0.980785 -1.000000 0.195090
v 1.000000 -1.000000 -0.000000
v 0.980785 -1.000000 -0.195090
v 0.923880 -1.000000 -0.382683
v 0.831470 -1.000000 -0.555570
v 0.707107 -1.000000 -0.707107
v 0.555570 -1.000000 -0.831470
v 0.382683 -1.000000 -0.923880
vt 0.910900 0.422327
vt 0.267596 0.368226
vt 0.899510 0.347385
vt 0.881600 0.273728
vt 0.857308 0.201924
vt 0.921883 0.513479
vt 0.913819 0.595461
vt 0.896026 0.667686
vt 0.871668 0.757478
vt 0.843961 0.831717
vt 0.817721 0.909993
vt 0.749757 0.954559
vt 0.631027 0.981947
vt 0.481191 0.946374
vt 0.438050 0.961076
vt 0.393786 0.971942
vt 0.348741 0.978891
vt 0.303260 0.981867
vt 0.257693 0.980848
vt 0.212391 0.975843
vt 0.167701 0.966889
vt 0.123967 0.954055
vt 0.057531 0.047200
vt 0.019037 0.063406
vt 0.097296 0.034427
vt 0.138027 0.025187
vt 0.179411 0.019549
vt 0.221129 0.017558
vt 0.262862 0.019228
vt 0.304288 0.024547
vt 0.345089 0.033474
vt 0.748241 0.003041
vt 0.790372 0.066058
vt 0.826821 0.132523
vt 0.365479 0.921587
vt 0.276186 0.472682
vt 0.321266 0.472682
vt 0.518781 0.634778
vt 0.501530 0.809932
vt 0.365479 0.481476
vt 0.407127 0.498727
vt 0.476485 0.555648
vt 0.444609 0.523772
vt 0.501530 0.593131
vt 0.527575 0.724071
vt 0.527575 0.678992
vt 0.518781 0.768284
vt 0.476485 0.847414
vt 0.444609 0.879291
vt 0.407126 0.904336
vt 0.152843 0.523772
vt 0.190325 0.498728
vt 0.190325 0.904335
vt 0.321265 0.930381
vt 0.231973 0.921586
vt 0.095922 0.809932
vt 0.078671 0.768284
vt 0.095922 0.593130
vt 0.069876 0.678991
vt 0.078671 0.634778
vt 0.120967 0.555648
vt 0.231972 0.481476
vt 0.276186 0.930381
vt 0.152843 0.879291
vt 0.120967 0.847414
vt 0.069876 0.724071
vn -0.259900 0.445500 -0.856700
vn 0.087800 0.445500 -0.891000
vn -0.422000 0.445500 -0.789600
vn -0.568000 0.445500 -0.692100
vn -0.692100 0.445500 -0.568000
vn -0.789600 0.445500 -0.422000
vn -0.856700 0.445500 -0.259900
vn -0.891000 0.445500 -0.087800
vn -0.891000 0.445500 0.087800
vn -0.856700 0.445500 0.259900
vn -0.789600 0.445500 0.422000
vn -0.692100 0.445500 0.568000
vn -0.568000 0.445500 0.692100
vn -0.422000 0.445500 0.789600
vn -0.259900 0.445500 0.856700
vn -0.087800 0.445500 0.891000
vn 0.087800 0.445500 0.891000
vn 0.259900 0.445500 0.856700
vn 0.422000 0.445500 0.789600
vn 0.568000 0.445500 0.692100
vn 0.692100 0.445500 0.568000
vn 0.789600 0.445500 0.422000
vn 0.856700 0.445500 0.259900
vn 0.891000 0.445500 0.087800
vn 0.891000 0.445500 -0.087800
vn 0.856700 0.445500 -0.259900
vn 0.789600 0.445500 -0.422000
vn 0.692100 0.445500 -0.568000
vn 0.568000 0.445500 -0.692100
vn 0.422000 0.445500 -0.789600
vn -0.087800 0.445500 -0.891000
vn 0.259900 0.445500 -0.856700
vn -0.000000 -1.000000 -0.000000
usemtl Material.001
s off
f 1/1/1 2/2/1 3/3/1
f 4/4/2 2/2/2 5/5/2
f 2/2/3 1/1/3 6/6/3
f 7/7/4 2/2/4 6/6/4
f 8/8/5 2/2/5 7/7/5
f 9/9/6 2/2/6 8/8/6
f 10/10/7 2/2/7 9/9/7
f 11/11/8 2/2/8 10/10/8
f 12/12/9 2/2/9 11/11/9
f 13/13/10 2/2/10 12/12/10
f 14/14/11 2/2/11 13/13/11
f 15/15/12 2/2/12 14/14/12
f 16/16/13 2/2/13 15/15/13
f 17/17/14 2/2/14 16/16/14
f 18/18/15 2/2/15 17/17/15
f 19/19/16 2/2/16 18/18/16
f 20/20/17 2/2/17 19/19/17
f 21/21/18 2/2/18 20/20/18
f 22/22/19 2/2/19 21/21/19
f 23/23/20 2/2/20 22/24/20
f 24/25/21 2/2/21 23/23/21
f 25/26/22 2/2/22 24/25/22
f 26/27/23 2/2/23 25/26/23
f 27/28/24 2/2/24 26/27/24
f 28/29/25 2/2/25 27/28/25
f 29/30/26 2/2/26 28/29/26
f 30/31/27 2/2/27 29/30/27
f 31/32/28 2/2/28 30/31/28
f 32/33/29 2/2/29 31/32/29
f 33/34/30 2/2/30 32/33/30
f 3/3/31 2/2/31 4/4/31
f 5/5/32 2/2/32 33/34/32
f 21/35/33 3/36/33 4/37/33
f 4/37/33 29/38/33 25/39/33
f 4/37/33 5/40/33 33/41/33
f 31/42/33 29/38/33 32/43/33
f 31/42/33 30/44/33 29/38/33
f 27/45/33 25/39/33 28/46/33
f 27/45/33 26/47/33 25/39/33
f 25/39/33 24/48/33 23/49/33
f 23/49/33 22/50/33 21/35/33
f 3/36/33 7/51/33 6/52/33
f 17/53/33 20/54/33 18/55/33
f 14/56/33 13/57/33 17/53/33
f 25/39/33 29/38/33 28/46/33
f 3/36/33 9/58/33 7/51/33
f 11/59/33 10/60/33 9/58/33
f 9/58/33 8/61/33 7/51/33
f 1/62/33 3/36/33 6/52/33
f 33/41/33 29/38/33 4/37/33
f 20/54/33 19/63/33 18/55/33
f 29/38/33 33/41/33 32/43/33
f 25/39/33 23/49/33 21/35/33
f 16/64/33 14/56/33 17/53/33
f 16/64/33 15/65/33 14/56/33
f 3/36/33 12/66/33 9/58/33
f 21/35/33 4/37/33 25/39/33
f 21/35/33 17/53/33 13/57/33
f 17/53/33 21/35/33 20/54/33
f 13/57/33 3/36/33 21/35/33
f 12/66/33 11/59/33 9/58/33
f 3/36/33 13/57/33 12/66/33
