# Blender v2.70 (sub 0) OBJ File: ''
# www.blender.org
mtllib cube2.mtl
o Cube_Cube.002
v 0.046889 -0.087112 1.475452
v 0.046889 -0.087112 -0.524548
v 2.046889 -0.087112 -0.524548
v 2.046889 -0.087112 1.475452
v 0.046889 1.912888 1.475452
v 0.046889 1.912888 -0.524548
v 2.046889 1.912888 -0.524548
v 2.046889 1.912888 1.475452
vt 0.500000 0.750000
vt 0.500000 0.500044
vt 0.749957 0.500043
vt 0.250043 0.750000
vt 0.250043 0.500044
vt 0.000087 0.750000
vt 0.000087 0.500044
vt 0.749957 0.750000
vt 0.999913 0.500043
vt 0.500000 0.250087
vt 0.749956 0.250087
vt 0.500000 0.999957
vt 0.999913 0.750000
vt 0.749957 0.999957
vn -1.000000 0.000000 0.000000
vn 0.000000 0.000000 -1.000000
vn 1.000000 0.000000 0.000000
vn 0.000000 0.000000 1.000000
vn 0.000000 -1.000000 0.000000
vn 0.000000 1.000000 0.000000
usemtl Material.001
s off
f 6/1/1 2/2/1 1/3/1
f 7/4/2 3/5/2 2/2/2
f 8/6/3 4/7/3 3/5/3
f 5/8/4 1/3/4 4/9/4
f 2/2/5 3/10/5 4/11/5
f 7/12/6 6/1/6 5/8/6
f 5/8/1 6/1/1 1/3/1
f 6/1/2 7/4/2 2/2/2
f 7/4/3 8/6/3 3/5/3
f 8/13/4 5/8/4 4/9/4
f 1/3/5 2/2/5 4/11/5
f 8/14/6 7/12/6 5/8/6
