# Blender v2.71 (sub 5) OBJ File: ''
# www.blender.org
mtllib floor.mtl
o Cube.001
v 1.000000 -0.200820 -1.000000
v 1.000000 -0.200820 1.000000
v -1.000000 -0.200820 1.000000
v -1.000000 -0.200820 -1.000000
v 1.000000 0.060305 -0.999999
v -1.000000 0.060305 -1.000000
v -1.000000 0.060305 1.000000
v 0.999999 0.060305 1.000001
vt 0.109776 0.891302
vt 0.109776 0.107823
vt 0.893255 0.107824
vt -0.001583 1.001781
vt -0.001583 -0.002384
vt 1.002582 -0.002385
vt 0.893255 0.891302
vt 0.893255 0.993595
vt 0.109776 0.993595
vt 0.007484 0.891301
vt 0.007484 0.107823
vt 0.109777 0.005530
vt 0.893255 0.005531
vt 0.995548 0.107823
vt 1.002582 1.001781
vt 0.995548 0.891302
vn 0.000000 -1.000000 -0.000000
vn -0.000000 1.000000 0.000000
vn 1.000000 0.000000 0.000000
vn -0.000000 -0.000000 1.000000
vn -1.000000 0.000000 0.000000
vn 0.000000 0.000000 -1.000000
usemtl Material.001
s off
f 2/1/1 3/2/1 4/3/1
f 6/4/2 7/5/2 8/6/2
f 1/7/3 5/8/3 8/9/3
f 2/1/4 8/10/4 7/11/4
f 7/12/5 6/13/5 4/3/5
f 1/7/6 4/3/6 6/14/6
f 1/7/1 2/1/1 4/3/1
f 5/15/2 6/4/2 8/6/2
f 2/1/3 1/7/3 8/9/3
f 3/2/4 2/1/4 7/11/4
f 3/2/5 7/12/5 4/3/5
f 5/16/6 1/7/6 6/14/6
