# Blender v2.69 (sub 0) OBJ File: ''
# www.blender.org
mtllib hud.mtl
o Plane_Plane.002
v 0.198623 -0.256000 -0.000000
v 1.000000 -0.256000 -0.000000
v 1.000000 0.478349 0.000000
v 1.000000 -0.425826 -0.000000
v 0.198623 -0.425826 -0.000000
v -0.374197 -0.234823 -0.000000
v 0.573639 -0.323111 0.043526
v 0.630886 -0.328749 0.043528
v 0.630886 -0.330570 -0.043914
v 0.685933 -0.345447 0.043536
v 0.685933 -0.347268 -0.043906
v 0.736665 -0.372564 0.043548
v 0.736665 -0.374384 -0.043894
v 0.781131 -0.409057 0.043565
v 0.781131 -0.410877 -0.043877
v 0.817624 -0.453523 0.043586
v 0.817624 -0.455344 -0.043856
v 0.844741 -0.504255 0.043609
v 0.844741 -0.506075 -0.043833
v 0.861439 -0.559302 0.043635
v 0.861439 -0.561122 -0.043807
v 0.867077 -0.616548 0.043661
v 0.867077 -0.618369 -0.043781
v 0.861439 -0.673795 0.043688
v 0.861439 -0.675615 -0.043754
v 0.844741 -0.728842 0.043713
v 0.844741 -0.730662 -0.043729
v 0.817624 -0.779574 0.043736
v 0.817624 -0.781394 -0.043705
v 0.781131 -0.824040 0.043757
v 0.781131 -0.825860 -0.043685
v 0.736664 -0.860533 0.043774
v 0.736664 -0.862353 -0.043668
v 0.685933 -0.887649 0.043786
v 0.685933 -0.889470 -0.043655
v 0.630886 -0.904348 0.043794
v 0.630886 -0.906168 -0.043648
v 0.573638 -0.909986 0.043797
v 0.573638 -0.911806 -0.043645
v 0.516391 -0.904347 0.043794
v 0.516391 -0.906168 -0.043648
v 0.461344 -0.887649 0.043786
v 0.461344 -0.889470 -0.043655
v 0.410612 -0.860533 0.043774
v 0.410612 -0.862353 -0.043668
v 0.366146 -0.824040 0.043757
v 0.366146 -0.825860 -0.043685
v 0.329653 -0.779573 0.043736
v 0.329653 -0.781394 -0.043705
v 0.302536 -0.728842 0.043713
v 0.302536 -0.730662 -0.043729
v 0.285838 -0.673795 0.043688
v 0.285838 -0.675615 -0.043754
v 0.280200 -0.616548 0.043661
v 0.280200 -0.618368 -0.043781
v 0.285838 -0.559301 0.043635
v 0.285838 -0.561122 -0.043807
v 0.302537 -0.504254 0.043609
v 0.302537 -0.506075 -0.043833
v 0.329653 -0.453523 0.043586
v 0.329653 -0.455343 -0.043856
v 0.366146 -0.409056 0.043565
v 0.366146 -0.410877 -0.043877
v 0.410613 -0.372564 0.043548
v 0.410613 -0.374384 -0.043894
v 0.461345 -0.345447 0.043536
v 0.516392 -0.328749 0.043528
v 0.516392 -0.330569 -0.043914
v 0.461345 -0.347268 -0.043906
v -0.619677 -0.428612 -0.000000
v -0.372016 -0.425826 -0.000000
v 1.000000 -1.000000 -0.000000
v 0.198623 -1.000000 -0.000000
v -0.372016 -1.000000 -0.000000
v 0.198623 0.478349 0.000000
v 0.573639 -0.324931 -0.043916
v -0.577596 -0.277177 -0.000000
v -0.539877 -0.997214 -0.000000
v -0.579777 -0.256000 -0.000000
vt 0.300425 0.714911
vt 0.020071 0.706868
vt 0.032677 0.267469
vt 0.018367 0.766280
vt 0.298721 0.774324
vt 0.648045 0.717470
vt 0.971637 0.096429
vt 0.981344 0.118609
vt 0.950475 0.128605
vt 0.986826 0.142695
vt 0.954187 0.147057
vt 0.987570 0.167680
vt 0.954444 0.165846
vt 0.983354 0.192508
vt 0.951046 0.184293
vt 0.974244 0.216099
vt 0.944086 0.201690
vt 0.960576 0.237439
vt 0.933821 0.217344
vt 0.942904 0.255631
vt 0.920661 0.230623
vt 0.921950 0.269931
vt 0.905132 0.240996
vt 0.898566 0.279770
vt 0.887858 0.248048
vt 0.873682 0.284772
vt 0.869519 0.251495
vt 0.848264 0.284772
vt 0.850820 0.251188
vt 0.823244 0.279816
vt 0.832483 0.247108
vt 0.799428 0.270124
vt 0.814970 0.239560
vt 0.777622 0.255956
vt 0.799184 0.228665
vt 0.758558 0.237593
vt 0.785738 0.214801
vt 0.742977 0.215241
vt 0.775418 0.198354
vt 0.733602 0.189661
vt 0.767879 0.180452
vt 0.729485 0.163511
vt 0.764193 0.161529
vt 0.730409 0.137507
vt 0.764364 0.142370
vt 0.736190 0.112423
vt 0.768236 0.123736
vt 0.746594 0.089078
vt 0.775540 0.106362
vt 0.761282 0.068301
vt 0.786086 0.090883
vt 0.779723 0.050879
vt 0.799456 0.077875
vt 0.801210 0.037494
vt 0.815126 0.067833
vt 0.824896 0.028666
vt 0.832478 0.061147
vt 0.849842 0.024734
vt 0.850830 0.058085
vt 0.875078 0.025833
vt 0.869515 0.058711
vt 0.899558 0.031918
vt 0.887736 0.063034
vt 0.922272 0.042682
vt 0.904791 0.070869
vt 0.942322 0.057568
vt 0.665470 0.454220
vt 0.645725 0.458148
vt 0.684070 0.446516
vt 0.933126 0.095455
vt 0.958959 0.075810
vt 0.920080 0.081857
vt 0.731978 0.787730
vt 0.645364 0.784269
vt 0.012604 0.967149
vt 0.292958 0.975193
vt 0.639601 0.985138
vt 0.313032 0.275512
vt 0.943502 0.111140
vt 0.700809 0.435331
vt 0.570507 0.276556
vt 0.715045 0.421096
vt 0.545086 0.307532
vt 0.625592 0.458148
vt 0.570507 0.435331
vt 0.556271 0.421095
vt 0.545086 0.404356
vt 0.625593 0.253739
vt 0.645726 0.253739
vt 0.537382 0.385756
vt 0.533454 0.366010
vt 0.533454 0.345878
vt 0.605847 0.454220
vt 0.537382 0.326132
vt 0.556271 0.290792
vt 0.605847 0.257667
vt 0.726231 0.404356
vt 0.684072 0.265372
vt 0.733935 0.385756
vt 0.665471 0.257667
vt 0.733935 0.326133
vt 0.700811 0.276557
vt 0.726231 0.307533
vt 0.737863 0.345878
vt 0.737863 0.366011
vt 0.587247 0.446516
vt 0.587247 0.265371
vt 0.715046 0.290793
vt 0.718777 0.734329
vt 0.698354 0.985849
vn 0.000000 -0.000000 1.000000
vn 0.097991 0.994972 -0.020721
vn 0.290225 0.956751 -0.019925
vn 0.471322 0.881770 -0.018353
vn 0.634323 0.772901 -0.016087
vn 0.772941 0.634340 -0.013210
vn 0.881880 0.471373 -0.009811
vn 0.956924 0.290274 -0.006042
vn 0.995183 0.098010 -0.002041
vn 0.995184 -0.098009 0.002040
vn 0.956925 -0.290271 0.006041
vn 0.881880 -0.471373 0.009812
vn 0.772941 -0.634340 0.013203
vn 0.634313 -0.772909 0.016088
vn 0.471317 -0.881773 0.018362
vn 0.290240 -0.956746 0.019915
vn 0.097990 -0.994972 0.020709
vn -0.098009 -0.994970 0.020709
vn -0.290225 -0.956751 0.019926
vn -0.471310 -0.881777 0.018363
vn -0.634323 -0.772901 0.016089
vn -0.772947 -0.634333 0.013202
vn -0.881876 -0.471379 0.009817
vn -0.956925 -0.290271 0.006041
vn -0.995183 -0.098010 0.002040
vn -0.995183 0.098011 -0.002040
vn -0.956921 0.290286 -0.006045
vn -0.881883 0.471367 -0.009816
vn -0.772947 0.634333 -0.013203
vn -0.634302 0.772917 -0.016096
vn -0.471323 0.881770 -0.018352
vn -0.000018 0.000538 1.000000
vn -0.097991 0.994972 -0.020708
vn -0.290224 0.956751 -0.019924
vn -0.000042 -0.000558 -1.000000
vn 0.098008 0.994970 -0.020709
vn 0.290224 0.956751 -0.019924
vn 0.471310 0.881777 -0.018363
vn 0.634321 0.772902 -0.016087
vn 0.772947 0.634333 -0.013202
vn 0.881875 0.471382 -0.009816
vn 0.956925 0.290271 -0.006042
vn 0.995184 0.098009 -0.002040
vn 0.995183 -0.098010 0.002041
vn 0.956925 -0.290272 0.006042
vn 0.881878 -0.471375 0.009811
vn 0.772941 -0.634341 0.013203
vn 0.634314 -0.772908 0.016088
vn 0.471330 -0.881766 0.018352
vn 0.290225 -0.956751 0.019923
vn -0.097991 -0.994972 0.020721
vn -0.290224 -0.956751 0.019923
vn -0.471322 -0.881770 0.018354
vn -0.634322 -0.772902 0.016087
vn -0.772940 -0.634342 0.013211
vn -0.881879 -0.471373 0.009811
vn -0.956925 -0.290271 0.006042
vn -0.995183 -0.098011 0.002040
vn -0.995183 0.098012 -0.002041
vn -0.956920 0.290288 -0.006045
vn -0.881887 0.471359 -0.009811
vn -0.772941 0.634341 -0.013210
vn -0.634314 0.772908 -0.016087
vn -0.471310 0.881777 -0.018363
vn -0.000005 0.000463 1.000000
vn -0.097991 0.994972 -0.020710
vn 0.000003 0.000463 1.000000
vn 0.000089 0.000445 1.000000
vn -0.000010 0.000461 1.000000
vn 0.000087 0.000480 1.000000
vn 0.000018 0.000463 1.000000
vn -0.000002 0.000463 1.000000
vn -0.000025 0.000395 1.000000
vn 0.000005 0.000461 1.000000
vn 0.000011 0.000463 1.000000
vn 0.000012 0.000463 1.000000
vn -0.000003 0.000461 1.000000
vn 0.000030 0.000457 1.000000
vn 0.000082 0.000497 1.000000
vn -0.000012 0.000463 1.000000
vn -0.290240 0.956747 -0.019914
vn 0.000066 0.000418 1.000000
vn -0.000001 0.000463 1.000000
vn -0.000015 0.000461 1.000000
vn -0.000015 0.000460 1.000000
vn -0.000007 0.000464 1.000000
vn -0.000087 0.000480 1.000000
vn 0.000001 0.000461 1.000000
vn 0.000002 0.000463 1.000000
vn -0.000003 0.000463 1.000000
vn -0.000010 0.000460 1.000000
vn 0.000010 0.000460 1.000000
vn -0.000008 0.000460 1.000000
vn 0.000007 0.000461 1.000000
vn 0.000011 -0.000462 -1.000000
vn -0.000018 -0.000539 -1.000000
vn -0.000036 -0.000509 -1.000000
vn 0.000066 -0.000418 -1.000000
vn 0.000029 -0.000463 -1.000000
vn 0.000088 -0.000445 -1.000000
vn 0.000082 -0.000516 -1.000000
vn -0.000021 -0.000441 -1.000000
vn -0.000017 -0.000364 -1.000000
vn 0.000029 -0.000469 -1.000000
vn 0.000007 -0.000462 -1.000000
vn -0.000029 -0.000469 -1.000000
vn -0.000087 -0.000445 -1.000000
vn -0.000066 -0.000418 -1.000000
vn 0.000011 -0.000463 -1.000000
vn -0.000003 -0.000463 -1.000000
vn -0.000001 -0.000463 -1.000000
vn -0.000005 -0.000463 -1.000000
vn 0.000003 -0.000462 -1.000000
vn -0.000005 -0.000465 -1.000000
vn -0.000021 -0.000467 -1.000000
vn -0.000006 -0.000463 -1.000000
vn 0.000001 -0.000463 -1.000000
vn 0.000082 -0.000429 -1.000000
vn -0.000002 -0.000462 -1.000000
vn 0.000002 -0.000463 -1.000000
vn -0.000005 -0.000462 -1.000000
usemtl Material.001
s off
f 1/1/1 2/2/1 3/3/1
f 2/2/1 1/1/1 4/4/1
f 5/5/1 1/1/1 6/6/1
f 7/7/2 8/8/2 9/9/2
f 8/8/3 10/10/3 11/11/3
f 10/10/4 12/12/4 13/13/4
f 12/12/5 14/14/5 15/15/5
f 14/14/6 16/16/6 17/17/6
f 16/16/7 18/18/7 19/19/7
f 18/18/8 20/20/8 21/21/8
f 20/20/9 22/22/9 23/23/9
f 22/22/10 24/24/10 25/25/10
f 24/24/11 26/26/11 27/27/11
f 26/26/12 28/28/12 29/29/12
f 28/28/13 30/30/13 31/31/13
f 30/30/14 32/32/14 33/33/14
f 32/32/15 34/34/15 35/35/15
f 34/34/16 36/36/16 37/37/16
f 36/36/17 38/38/17 39/39/17
f 39/39/18 38/38/18 40/40/18
f 41/41/19 40/40/19 42/42/19
f 43/43/20 42/42/20 44/44/20
f 45/45/21 44/44/21 46/46/21
f 47/47/22 46/46/22 48/48/22
f 49/49/23 48/48/23 50/50/23
f 51/51/24 50/50/24 52/52/24
f 53/53/25 52/52/25 54/54/25
f 55/55/26 54/54/26 56/56/26
f 57/57/27 56/56/27 58/58/27
f 59/59/28 58/58/28 60/60/28
f 61/61/29 60/60/29 62/62/29
f 63/63/30 62/62/30 64/64/30
f 65/65/31 64/64/31 66/66/31
f 67/67/32 66/68/32 7/69/32
f 68/70/33 67/71/33 7/7/33
f 69/72/34 66/66/34 67/71/34
f 43/43/35 45/45/35 41/41/35
f 70/73/1 71/74/1 6/6/1
f 72/75/1 4/4/1 5/5/1
f 73/76/1 5/5/1 71/74/1
f 74/77/1 71/74/1 70/73/1
f 75/78/1 1/1/1 3/3/1
f 4/4/1 1/1/1 5/5/1
f 71/74/1 5/5/1 6/6/1
f 76/79/36 7/7/36 9/9/36
f 9/9/37 8/8/37 11/11/37
f 11/11/38 10/10/38 13/13/38
f 13/13/39 12/12/39 15/15/39
f 15/15/40 14/14/40 17/17/40
f 17/17/41 16/16/41 19/19/41
f 19/19/42 18/18/42 21/21/42
f 21/21/43 20/20/43 23/23/43
f 23/23/44 22/22/44 25/25/44
f 25/25/45 24/24/45 27/27/45
f 27/27/46 26/26/46 29/29/46
f 29/29/47 28/28/47 31/31/47
f 31/31/48 30/30/48 33/33/48
f 33/33/49 32/32/49 35/35/49
f 35/35/50 34/34/50 37/37/50
f 37/37/17 36/36/17 39/39/17
f 41/41/51 39/39/51 40/40/51
f 43/43/52 41/41/52 42/42/52
f 45/45/53 43/43/53 44/44/53
f 47/47/54 45/45/54 46/46/54
f 49/49/55 47/47/55 48/48/55
f 51/51/56 49/49/56 50/50/56
f 53/53/57 51/51/57 52/52/57
f 55/55/58 53/53/58 54/54/58
f 57/57/59 55/55/59 56/56/59
f 59/59/60 57/57/60 58/58/60
f 61/61/61 59/59/61 60/60/61
f 63/63/62 61/61/62 62/62/62
f 65/65/63 63/63/63 64/64/63
f 69/72/64 65/65/64 66/66/64
f 8/80/65 40/81/65 10/82/65
f 76/79/66 68/70/66 7/7/66
f 44/83/67 40/81/67 64/84/67
f 58/85/68 56/86/68 54/87/68
f 10/82/69 34/88/69 32/89/69
f 52/90/70 50/91/70 54/87/70
f 48/92/71 58/85/71 50/91/71
f 44/83/72 62/93/72 46/94/72
f 44/83/73 42/95/73 40/81/73
f 34/88/74 10/82/74 36/96/74
f 12/97/75 10/82/75 32/89/75
f 28/98/76 14/99/76 30/100/76
f 66/68/77 40/81/77 7/69/77
f 20/101/78 26/102/78 22/103/78
f 20/101/79 18/104/79 16/105/79
f 46/94/80 62/93/80 48/92/80
f 68/70/81 69/72/81 67/71/81
f 62/93/82 60/106/82 58/85/82
f 50/91/83 58/85/83 54/87/83
f 20/101/84 28/98/84 26/102/84
f 28/98/85 16/105/85 14/99/85
f 40/81/86 38/107/86 10/82/86
f 26/102/87 24/108/87 22/103/87
f 48/92/88 62/93/88 58/85/88
f 12/97/89 32/89/89 30/100/89
f 14/99/90 12/97/90 30/100/90
f 44/83/89 64/84/89 62/93/89
f 40/81/91 66/68/91 64/84/91
f 40/81/92 8/80/92 7/69/92
f 28/98/93 20/101/93 16/105/93
f 10/82/94 38/107/94 36/96/94
f 76/79/95 39/39/95 68/70/95
f 76/79/96 9/9/96 11/11/96
f 11/11/97 13/13/97 15/15/97
f 15/15/98 17/17/98 19/19/98
f 25/25/99 27/27/99 19/19/99
f 19/19/100 21/21/100 23/23/100
f 27/27/101 29/29/101 31/31/101
f 31/31/102 33/33/102 35/35/102
f 35/35/103 37/37/103 39/39/103
f 77/109/1 70/73/1 6/6/1
f 53/53/104 55/55/104 59/59/104
f 68/70/105 39/39/105 41/41/105
f 25/25/106 19/19/106 23/23/106
f 55/55/107 57/57/107 59/59/107
f 59/59/108 61/61/108 63/63/108
f 69/72/109 45/45/109 65/65/109
f 11/11/110 35/35/110 76/79/110
f 19/19/111 31/31/111 15/15/111
f 47/47/110 63/63/110 65/65/110
f 73/76/1 72/75/1 5/5/1
f 15/15/112 31/31/112 11/11/112
f 76/79/113 35/35/113 39/39/113
f 49/49/114 53/53/114 59/59/114
f 59/59/115 47/47/115 49/49/115
f 31/31/116 35/35/116 11/11/116
f 47/47/117 59/59/117 63/63/117
f 19/19/117 27/27/117 31/31/117
f 49/49/118 51/51/118 53/53/118
f 45/45/119 69/72/119 41/41/119
f 45/45/120 47/47/120 65/65/120
f 69/72/121 68/70/121 41/41/121
f 74/77/1 73/76/1 71/74/1
f 78/110/1 74/77/1 70/73/1
l 77 79
