# Blender v2.71 (sub 5) OBJ File: ''
# www.blender.org
mtllib hud_text.mtl
o Plane
v -1.575825 -1.989073 -0.000000
v -1.575825 1.989073 0.000000
v 1.575825 1.989073 0.000000
v 1.575825 -1.785357 -0.000000
v 1.541496 -1.889967 -0.000000
v 1.498581 -1.944137 -0.000000
v 1.412634 -1.989073 -0.000000
vt 0.948131 0.000100
vt 0.975396 0.011393
vt 0.989010 0.025008
vt 0.000100 0.000100
vt 0.999900 0.051299
vt 0.000100 0.999900
vt 0.999900 0.999900
vn -0.000000 -0.000000 1.000000
usemtl Material.001
s off
f 7/1/1 6/2/1 5/3/1
f 1/4/1 4/5/1 2/6/1
f 4/5/1 7/1/1 5/3/1
f 4/5/1 1/4/1 7/1/1
f 4/5/1 3/7/1 2/6/1
