# Blender v2.71 (sub 5) OBJ File: ''
# www.blender.org
mtllib wall_segment.mtl
o Cube_Cube.001
v -1.000032 3.987181 -0.062717
v -1.000032 -0.024204 -0.062717
v -0.999967 -0.024204 0.063754
v 0.999967 3.987181 -0.063754
v 0.999967 -0.024204 -0.063754
v 1.000032 3.987181 0.062717
v 1.000032 -0.024204 0.062717
v -0.999967 3.987181 0.063754
vt 4.629313 0.017104
vt 4.629313 1.456521
vt 3.189896 1.456521
vt 0.976861 0.977668
vt 0.963441 0.029505
vt 0.010938 0.021667
vt 4.640415 1.832947
vt 4.640415 2.832947
vt 3.640415 2.832947
vt 0.975366 0.976586
vt 0.983179 0.021302
vt 0.008438 0.021406
vt 0.015157 0.976144
vt 0.970967 0.983878
vt 0.976574 0.013739
vt 0.005139 0.021473
vt 3.189896 0.017104
vt 0.010938 0.984686
vt 3.640415 1.832947
vt 0.006232 0.985038
vn -1.000000 -0.000000 0.000500
vn -0.000500 0.000000 -1.000000
vn 1.000000 0.000000 -0.000500
vn 0.000500 -0.000000 1.000000
vn -0.000000 -1.000000 -0.000000
vn 0.000000 1.000000 -0.000000
usemtl Material.001
s off
f 1/1/1 2/2/1 3/3/1
f 4/4/2 5/5/2 2/6/2
f 6/7/3 7/8/3 5/9/3
f 8/10/4 3/11/4 7/12/4
f 3/13/5 2/14/5 5/5/5
f 4/4/6 1/15/6 8/16/6
f 8/17/1 1/1/1 3/3/1
f 1/18/2 4/4/2 2/6/2
f 4/19/3 6/7/3 5/9/3
f 6/20/4 8/10/4 7/12/4
f 7/12/5 3/13/5 5/5/5
f 6/20/6 4/4/6 8/16/6
